<svg xmlns="http://www.w3.org/2000/svg" viewBox="0 0 1000 1000" preserveAspectRatio="xMidYMid" fill-rule="evenodd" stroke-width="10" stroke-linejoin="round" fill="none" stroke="#000"><path d="M286 654l-48-27-14-10-28-22-12-11-12-13-11-12-20-26-8-14-14-28-6-14-4-15-4-14-3-15-2-30v-15l4-30 3-14 4-15 6-15 6-14 7-14 8-13 9-14 10-13 10-12 12-13 12-11 13-12 14-11 14-10 15-10 16-9 17-8 16-8 18-8 36-12 38-10 19-4 19-3 40-4 20-1h20l40 2 19 2 20 3 19 3 57 15 18 7 17 7 18 7 48 27 14 10 28 22 12 11 12 12 11 13 20 26 8 14 7 13 7 15 6 14 4 14 4 15 3 15 2 30v15l-4 30-3 14-4 15-6 14-6 15-7 14-8 13-9 14-9 13-11 12-12 13-12 11-13 12-14 11-14 10-15 10-16 9-16 8-17 8-36 14-18 6-38 10-19 4-19 3-40 4-20 1h-20l-20-1-19-1-20-2-20-3-162 162 33-201zM100 100zm801 601z"/></svg>