<svg xmlns="http://www.w3.org/2000/svg" viewBox="0 0 1000 1000" preserveAspectRatio="xMidYMid" fill-rule="evenodd" stroke-width="10" stroke-linejoin="round" fill="none" stroke="#000"><path d="M900 649l-2-40-6-40-5-20-6-20-6-19-8-18-8-19-10-18-10-17-11-17-12-16-13-16-13-15-30-28-15-13-17-12-17-11-17-10-36-18-38-14-40-10-40-6-40-2-40 2-40 6-40 10-38 14-36 18-17 10-17 11-17 12-15 13-30 28-13 15-13 16-12 16-11 17-10 17-10 18-8 19-8 18-6 19-6 20-5 20-6 40-2 40h112v-14l2-15 1-14 3-15 3-14 4-14 5-14 18-39 8-13 8-12 9-12 9-11 10-11 10-10 11-10 11-9 12-9 12-8 12-7 13-7 14-6 13-5 14-5 14-4 28-6 15-2 14-1h30l14 1 15 2 28 6 14 4 14 5 13 5 14 6 13 7 12 7 12 8 12 9 11 9 11 10 10 10 10 11 9 11 9 12 8 12 8 13 18 39 5 14 4 14 3 14 3 15 1 14 2 15v14h112zM100 250zm801 801z"/></svg>