<svg xmlns="http://www.w3.org/2000/svg" viewBox="0 0 1000 1000" preserveAspectRatio="xMidYMid" fill-rule="evenodd" stroke-width="10" stroke-linejoin="round" fill="none" stroke="#000"><path d="M900 500l-2 40-6 40-5 19-5 20-6 19-16 36-9 18-10 18-11 16-12 17-26 30-14 15-30 26-16 12-34 22-36 18-18 7-19 7-19 6-20 5-19 3-20 3-20 2-20 1h-20l-20-1-40-6-20-4-19-5-19-6-19-7-18-8-18-9-18-10-17-10-32-24-15-13-15-14-14-15-13-15-24-32-10-17-10-18-9-18-8-18-7-19-6-19-5-19-4-20-6-40-1-20v-20l1-20 2-20 3-20 3-19 5-20 6-19 7-19 7-18 18-36 22-34 12-16 26-30 15-14 30-26 17-12 16-11 18-10 18-9 36-16 19-6 20-5 19-5 40-6 40-2v400h400zM100 100zm801 801z"/></svg>