<svg xmlns="http://www.w3.org/2000/svg" viewBox="0 0 1000 1000" preserveAspectRatio="xMidYMid" fill-rule="evenodd" stroke-width="10" stroke-linejoin="round" fill="none" stroke="#000"><path d="M666 100l235 234-83 34-186-185 34-83zM334 901L100 666l83-34 185 186-34 83z"/><path d="M901 334v332l-83-34V368l83-34zM666 901H334l34-83h264l34 83z"/><path d="M901 666L666 901l-34-83 186-186 83 34zm-801 0V334l83 34v264l-83 34zm234-566h332l-34 83H368l-34-83z"/><path d="M100 334l234-234 34 83-185 185-83-34zm0-234zm801 801z"/></svg>