<svg xmlns="http://www.w3.org/2000/svg" viewBox="0 0 1000 1000" preserveAspectRatio="xMidYMid" fill-rule="evenodd" stroke-width="10" stroke-linejoin="round" fill="none" stroke="#000"><path d="M100 281c0-22 21-44 43-44h670v-44c0-22 22-43 44-43s44 21 44 43v526c0 22-22 44-44 44H187v44c0 22-22 44-44 44s-43-22-43-44V281z"/><path d="M143 281c0-11 11-22 22-22s22 11 22 22c0 22-22 44-44 44v-44zm714-88c0 11-22 22-44 22v-22c0-22 22-43 44-43s44 21 44 43-22 44-44 44v-44z"/><path d="M143 325c-22 0-43-22-43-44m757-44h-44m-626 44v526m-87-657zm801 701z"/></svg>