<svg xmlns="http://www.w3.org/2000/svg" viewBox="0 0 1000 1000" preserveAspectRatio="xMidYMid" fill-rule="evenodd" stroke-width="10" stroke-linejoin="round" fill="none" stroke="#000"><path d="M160 901c-30 0-60-31-60-61 0-31 30-61 60-61h61V160c0-30 30-60 60-60h559c30 0 61 30 61 60s-31 61-61 61h-61v619c0 30-30 61-60 61H160z"/><path d="M342 160c0 30-31 61-61 61-15 0-30-16-30-31s15-30 30-30h61zM221 840c0 30-31 61-61 61s-60-31-60-61c0-31 30-61 60-61 15 0 30 15 30 31 0 15-15 30-30 30h61z"/><path d="M281 100c30 0 61 30 61 60M221 779v61"/><path d="M281 221h559M100 100zm801 801z"/></svg>