<svg xmlns="http://www.w3.org/2000/svg" viewBox="0 0 1000 1000" preserveAspectRatio="xMidYMid" fill-rule="evenodd" stroke-width="10" stroke-linejoin="round" fill="none" stroke="#000"><path d="M171 399c-15-75 55-145 124-145 22 0 44 7 63 18 18-34 51-54 88-54 24 1 51 11 69 29 14-30 42-47 72-47 26 0 49 12 64 32 17-20 43-32 69-32 44 0 80 31 88 75 42 12 72 52 72 98 0 13-2 27-8 40 18 22 29 49 29 78 0 63-48 117-110 126 0 61-47 109-107 109-20 0-39-6-56-17-16 54-65 92-121 92-41 0-80-23-103-59-22 14-10 22-73 22-52 0-99-28-124-74-59-1-90-37-90-83 0-21 8-40 22-56-25-13-39-40-39-70 0-42 31-78 71-82z"/><path d="M171 399c1 7 4 14 6 21m181-148c9 5 19 12 26 20m131-45c-3 6-5 13-6 19m142-34c-6 6-9 15-12 23m169 20c1 5 5 16 3 19m61 119c-6 14-15 26-27 37m-54 167c3-22-14-78-61-99M628 709c3-9 4-18 4-26"/><path d="M404 742c-6-7-9-15-13-24m-184-28c7-1 14-2 21-5m-89-134c12 7 27 14 47 11m-86-362zm801 601z"/></svg>