<svg xmlns="http://www.w3.org/2000/svg" viewBox="0 0 1000 1000" preserveAspectRatio="xMidYMid" fill-rule="evenodd" stroke-width="10" stroke-linejoin="round" fill="none" stroke="#000"><path d="M500 290c-119 0-210 91-210 210s91 210 210 210 210-91 210-210-91-210-210-210z"/><path d="M100 500c0-61 37-110 91-127-10-19-15-40-15-64 0-75 58-133 133-133 24 0 45 5 64 15 17-54 66-91 127-91s110 37 127 91c19-10 40-15 64-15 75 0 133 58 133 133 0 24-5 45-15 64 54 17 92 66 92 127s-38 110-92 127c10 19 15 40 15 64 0 75-58 133-133 133-24 0-45-5-64-15-17 54-66 92-127 92s-110-38-127-92c-19 10-40 15-64 15-75 0-133-58-133-133 0-24 5-45 15-64-54-17-91-66-91-127zm0-400zm801 801z"/></svg>