<svg xmlns="http://www.w3.org/2000/svg" viewBox="0 0 1000 1000" preserveAspectRatio="xMidYMid" fill-rule="evenodd" stroke-width="10" stroke-linejoin="round" fill="none" stroke="#000"><path d="M500 100c227 0 400 173 400 400S727 900 500 900 100 727 100 500s173-400 400-400z"/><path d="M255 326l-16 26-7 13-6 13-6 14-5 15-8 28-3 15-2 15-2 30v15l1 15 4 30 3 15 4 14 5 14 5 15 6 13 7 14 7 13 8 13 8 12 10 12 20 22 22 20 12 10 12 8 13 8 13 7 14 7 13 6 15 5 14 5 14 4 15 3 30 4 15 1h15l30-2 15-2 15-3 28-8 15-5 14-6 13-6 13-7 26-16-419-419zm490 348l16-26 7-13 6-13 6-14 5-15 8-28 3-15 2-15 2-30v-15l-1-15-4-30-3-15-4-14-5-14-5-15-6-13-7-14-7-13-8-13-8-12-10-12-20-22-22-20-12-10-12-8-13-8-13-7-14-7-13-6-15-5-14-5-14-4-15-3-30-4-15-1h-15l-30 2-15 2-15 3-28 8-15 5-14 6-13 6-13 7-26 16 419 419zM100 100zm801 801z"/></svg>