<svg xmlns="http://www.w3.org/2000/svg" viewBox="0 0 1000 1000" preserveAspectRatio="xMidYMid" fill-rule="evenodd" stroke-width="10" stroke-linejoin="round" fill="none" stroke="#000"><path d="M241 763c61 5 129 39 182 15 5-3 9-9 11-15s1-12 0-18c-2-9-9-16-11-24-5-14-7-30-6-45 1-9 4-19 8-27 5-8 13-15 20-20 10-7 20-13 31-15 7-2 14-2 20 0 16 3 30 11 43 21 10 8 20 17 25 29 6 14 7 31 4 45-2 11-10 19-14 29-4 8-9 16-10 24-1 7-2 16 3 21 53 44 135-8 202-12h1c-4-71-53-157-11-213 4-5 13-4 19-3 8 1 15 7 23 10 9 5 17 14 28 16 14 3 29 2 42-4 12-6 21-16 29-27 9-13 16-29 19-45 2-7 2-14 0-21-2-11-7-23-14-32-5-9-12-16-20-21-7-5-16-8-25-9-14-2-29 1-43 6-8 2-14 9-22 12-6 1-12 2-17 0-6-3-12-6-14-12-23-56 9-127 14-191h-1c-61-5-129-38-182-15-5 3-9 9-11 15s-1 12 0 18c2 9 9 15 11 24 4 14 7 30 6 45-1 9-4 18-9 27-4 8-12 15-19 20-10 7-20 13-32 15-6 2-13 2-19 0-16-3-30-11-43-21-10-8-20-17-25-29-6-14-7-31-4-45 2-11 10-20 14-29 4-8 9-16 10-24 1-7 2-17-3-21-53-43-135 8-202 12l1 2c4 71 53 157 11 212-4 5-13 4-19 3-8-1-16-6-23-10-9-5-17-13-28-15-14-3-29-2-42 4-12 5-21 16-29 27-9 13-16 28-19 44-1 7-1 14 0 21 2 12 7 23 14 33 5 8 12 16 20 21 7 5 16 8 25 9 14 1 29-2 43-6 8-3 14-10 22-12 6-1 12-2 17 0 6 2 12 6 14 12 23 56-9 127-14 191l-1-2zM100 200zm801 601z"/></svg>