<svg xmlns="http://www.w3.org/2000/svg" viewBox="0 0 1000 1000" preserveAspectRatio="xMidYMid" fill-rule="evenodd" stroke-width="10" stroke-linejoin="round" fill="none" stroke="#000"><path d="M100 500l162 58V442l-162 58zm117 283l156-74-82-82-74 156zm283 118l58-163H442l58 163zm283-118l-74-156-82 82 156 74zm118-283l-163-58v116l163-58zM783 217l-156 74 82 82 74-156zM500 100l-58 162h116l-58-162zM217 217l74 156 82-82-156-74zm281 82c113 0 200 86 200 199s-87 200-200 200-199-87-199-200 86-199 199-199zM100 100zm801 801z"/></svg>