<?xml version="1.0" encoding="UTF-8"?><!DOCTYPE svg PUBLIC "-//W3C//DTD SVG 1.1//EN"
		"http://www.w3.org/Graphics/SVG/1.1/DTD/svg11.dtd">
<svg version="1.2" viewBox="0 0 1000 1000" preserveAspectRatio="xMidYMid" fill-rule="evenodd" stroke-width="10"
     stroke-linejoin="round" xmlns="http://www.w3.org/2000/svg">
	<g>
		<path fill="none" stroke="rgb(0,0,0)"
		      d="M 497,100 L 548,328 699,155 626,372 850,300 676,456 901,500 676,545 850,700 626,628 699,845 548,672 497,901 452,672 301,845 374,628 150,700 324,545 100,500 324,456 150,300 374,372 301,155 452,328 497,100 497,100 Z"/>
		<path fill="none" stroke="rgb(0,0,0)" d="M 100,100 L 100,100 Z"/>
		<path fill="none" stroke="rgb(0,0,0)" d="M 901,901 L 901,901 Z"/>
	</g>
</svg>