<?xml version="1.0" encoding="UTF-8"?><!DOCTYPE svg PUBLIC "-//W3C//DTD SVG 1.1//EN"
		"http://www.w3.org/Graphics/SVG/1.1/DTD/svg11.dtd">
<svg version="1.2" viewBox="0 0 1000 1000" preserveAspectRatio="xMidYMid" fill-rule="evenodd" stroke-width="10"
     stroke-linejoin="round" xmlns="http://www.w3.org/2000/svg">
	<g>
		<path fill="none" stroke="rgb(0,0,0)"
		      d="M 100,500 L 195,538 113,604 215,615 153,700 254,685 217,783 311,743 300,847 380,783 396,887 457,805 500,901 538,805 604,887 615,785 700,847 685,746 783,783 743,689 847,700 783,620 887,604 805,543 901,500 805,462 887,396 785,385 847,300 746,315 783,217 689,257 700,153 620,217 604,113 543,195 500,100 462,195 396,113 385,215 300,153 315,254 217,217 257,311 153,300 217,380 113,396 195,457 100,500 100,500 Z"/>
		<path fill="none" stroke="rgb(0,0,0)" d="M 100,100 L 100,100 Z"/>
		<path fill="none" stroke="rgb(0,0,0)" d="M 901,901 L 901,901 Z"/>
	</g>
</svg>