<?xml version="1.0" encoding="UTF-8"?><!DOCTYPE svg PUBLIC "-//W3C//DTD SVG 1.1//EN"
		"http://www.w3.org/Graphics/SVG/1.1/DTD/svg11.dtd">
<svg version="1.2" viewBox="0 0 1000 1000" preserveAspectRatio="xMidYMid" fill-rule="evenodd" stroke-width="10"
     stroke-linejoin="round" xmlns="http://www.w3.org/2000/svg">
	<g>
		<path fill="none" stroke="rgb(0,0,0)"
		      d="M 666,500 L 666,492 665,483 664,475 663,467 661,458 658,450 656,442 653,435 649,427 645,419 641,412 636,405 631,398 626,392 620,386 614,380 608,374 602,369 595,364 588,359 581,355 573,351 565,347 558,344 550,342 542,339 533,337 525,336 517,335 508,334 500,334 492,334 483,335 475,336 467,337 458,339 450,342 442,344 435,347 427,351 419,355 412,359 405,364 398,369 392,374 386,380 380,386 374,392 369,398 364,405 359,412 355,419 351,427 347,435 344,442 342,450 339,458 337,467 336,475 335,483 334,492 334,500 175,500 175,484 177,467 179,451 182,435 185,419 190,403 195,387 201,372 208,357 216,342 224,328 233,314 243,301 253,288 264,276 276,264 288,253 301,243 314,233 328,224 342,216 357,208 372,201 387,195 403,190 419,185 435,182 451,179 467,177 484,175 500,175 516,175 533,177 549,179 565,182 581,185 597,190 613,195 628,201 643,208 658,216 672,224 686,233 699,243 712,253 724,264 736,276 747,288 757,301 767,314 776,328 784,342 792,357 799,372 805,387 810,403 815,419 818,435 821,451 823,467 825,484 825,500 907,500 746,661 584,500 666,500 Z"/>
		<path fill="none" stroke="rgb(0,0,0)" d="M 175,175 L 175,175 Z"/>
		<path fill="none" stroke="rgb(0,0,0)" d="M 826,826 L 826,826 Z"/>
	</g>
</svg>