<svg xmlns="http://www.w3.org/2000/svg" viewBox="0 0 1000 1000" preserveAspectRatio="xMidYMid" fill-rule="evenodd" stroke-width="10" stroke-linejoin="round" fill="none" stroke="#000"><path d="M100 500l95 38-82 66 102 11-62 85 101-15-37 98 94-40-11 104 80-64 16 104 61-82 43 96 38-96 66 82 11-102 85 62-15-101 98 37-40-94 104 11-64-80 104-16-82-61 96-43-96-38 82-66-102-11 62-85-101 15 37-98-94 40 11-104-80 64-16-104-61 82-43-95-38 95-66-82-11 102-85-62 15 101-98-37 40 94-104-11 64 80-104 16 82 61-95 43zm0-400zm801 801z"/></svg>