<svg xmlns="http://www.w3.org/2000/svg" viewBox="0 0 1000 1000" preserveAspectRatio="xMidYMid" fill-rule="evenodd" stroke-width="10" stroke-linejoin="round" fill="none" stroke="#000"><path d="M666 500v-8l-1-9-2-16-2-9-3-8-2-8-3-7-8-16-4-7-10-14-5-6-18-18-6-5-14-10-7-4-16-8-7-3-8-2-8-3-9-2-16-2-9-1h-16l-9 1-16 2-9 2-8 3-8 2-7 3-16 8-7 4-14 10-6 5-18 18-5 6-10 14-4 7-8 16-3 7-2 8-3 8-2 9-2 16-1 9v8H175v-16l2-17 2-16 6-32 10-32 6-15 7-15 8-15 8-14 9-14 20-26 11-12 12-12 12-11 26-20 14-9 14-8 15-8 15-7 15-6 32-10 32-6 16-2 17-2h32l17 2 16 2 32 6 32 10 15 6 15 7 15 8 14 8 14 9 26 20 12 11 12 12 11 12 20 26 9 14 8 14 8 15 7 15 6 15 10 32 6 32 2 16 2 17v16h82L746 661 584 500h82zM175 175zm651 651z"/></svg>