<?xml version="1.0" encoding="UTF-8"?><!DOCTYPE svg PUBLIC "-//W3C//DTD SVG 1.1//EN"
		"http://www.w3.org/Graphics/SVG/1.1/DTD/svg11.dtd">
<svg version="1.2" viewBox="0 0 1000 1000" preserveAspectRatio="xMidYMid" fill-rule="evenodd" stroke-width="10"
     stroke-linejoin="round" xmlns="http://www.w3.org/2000/svg">
	<g>
		<path fill="none" stroke="rgb(0,0,0)"
		      d="M 900,649 L 899,629 898,609 895,589 892,569 887,549 881,529 875,510 867,492 859,473 849,455 839,438 828,421 816,405 803,389 790,374 775,360 760,346 745,333 728,321 711,310 694,300 676,291 658,282 639,275 620,268 600,263 580,258 560,255 540,252 520,251 500,250 480,251 460,252 440,255 420,258 400,263 380,268 361,275 342,282 324,291 306,300 289,310 272,321 255,333 240,346 225,360 210,374 197,389 184,405 172,421 161,438 151,455 141,473 133,492 125,510 119,529 113,549 108,569 105,589 102,609 101,629 100,649 212,649 212,635 214,620 215,606 218,591 221,577 225,563 230,549 236,536 242,523 248,510 256,497 264,485 273,473 282,462 292,451 302,441 313,431 324,422 336,413 348,405 360,398 373,391 387,385 400,380 414,375 428,371 442,368 456,365 471,363 485,362 500,362 515,362 529,363 544,365 558,368 572,371 586,375 600,380 613,385 627,391 640,398 652,405 664,413 676,422 687,431 698,441 708,451 718,462 727,473 736,485 744,497 752,510 758,523 764,536 770,549 775,563 779,577 782,591 785,606 786,620 788,635 788,649 900,649 Z"/>
		<path fill="none" stroke="rgb(0,0,0)" d="M 100,250 L 100,250 Z"/>
		<path fill="none" stroke="rgb(0,0,0)" d="M 901,1051 L 901,1051 Z"/>
	</g>
</svg>