<?xml version="1.0" encoding="UTF-8"?><!DOCTYPE svg PUBLIC "-//W3C//DTD SVG 1.1//EN"
		"http://www.w3.org/Graphics/SVG/1.1/DTD/svg11.dtd">
<svg version="1.2" viewBox="0 0 1000 1000" preserveAspectRatio="xMidYMid" fill-rule="evenodd" stroke-width="10"
     stroke-linejoin="round" xmlns="http://www.w3.org/2000/svg">
	<g>
		<path fill="none" stroke="rgb(0,0,0)"
		      d="M 900,500 L 899,520 898,540 895,560 892,580 887,599 882,619 876,638 868,656 860,674 851,692 841,710 830,726 818,743 805,758 792,773 778,788 763,801 748,814 732,826 715,837 698,848 680,857 662,866 644,873 625,880 606,886 586,891 567,894 547,897 527,899 507,900 487,900 467,899 447,896 427,893 407,889 388,884 369,878 350,871 332,863 314,854 296,844 279,834 263,822 247,810 232,797 217,783 203,768 190,753 178,737 166,721 156,704 146,686 137,668 129,650 122,631 116,612 111,593 107,573 104,553 101,533 100,513 100,493 101,473 103,453 106,433 109,414 114,394 120,375 127,356 134,338 143,320 152,302 163,285 174,268 186,252 199,237 212,222 227,208 242,195 257,182 274,170 290,159 308,149 326,140 344,132 362,124 381,118 401,113 420,108 440,105 460,102 480,101 500,100 500,500 900,500 Z"/>
		<path fill="none" stroke="rgb(0,0,0)" d="M 100,100 L 100,100 Z"/>
		<path fill="none" stroke="rgb(0,0,0)" d="M 901,901 L 901,901 Z"/>
	</g>
</svg>