<?xml version="1.0" encoding="UTF-8"?><!DOCTYPE svg PUBLIC "-//W3C//DTD SVG 1.1//EN"
		"http://www.w3.org/Graphics/SVG/1.1/DTD/svg11.dtd">
<svg version="1.2" viewBox="0 0 1000 1000" preserveAspectRatio="xMidYMid" fill-rule="evenodd" stroke-width="10"
     stroke-linejoin="round" xmlns="http://www.w3.org/2000/svg">
	<g>
		<path fill="none" stroke="rgb(0,0,0)" d="M 500,100 L 901,500 774,500 500,227 500,100 Z"/>
		<path fill="none" stroke="rgb(0,0,0)" d="M 100,100 L 100,100 Z"/>
		<path fill="none" stroke="rgb(0,0,0)" d="M 901,901 L 901,901 Z"/>
		<path fill="none" stroke="rgb(0,0,0)" d="M 901,500 L 500,901 500,774 774,500 901,500 Z"/>
		<path fill="none" stroke="rgb(0,0,0)" d="M 100,100 L 100,100 Z"/>
		<path fill="none" stroke="rgb(0,0,0)" d="M 901,901 L 901,901 Z"/>
		<path fill="none" stroke="rgb(0,0,0)" d="M 500,901 L 100,500 227,500 500,774 500,901 Z"/>
		<path fill="none" stroke="rgb(0,0,0)" d="M 100,100 L 100,100 Z"/>
		<path fill="none" stroke="rgb(0,0,0)" d="M 901,901 L 901,901 Z"/>
		<path fill="none" stroke="rgb(0,0,0)" d="M 100,500 L 227,500 500,227 500,100 100,500 Z"/>
		<path fill="none" stroke="rgb(0,0,0)" d="M 100,100 L 100,100 Z"/>
		<path fill="none" stroke="rgb(0,0,0)" d="M 901,901 L 901,901 Z"/>
	</g>
</svg>