<?xml version="1.0" encoding="UTF-8"?><!DOCTYPE svg PUBLIC "-//W3C//DTD SVG 1.1//EN"
		"http://www.w3.org/Graphics/SVG/1.1/DTD/svg11.dtd">
<svg version="1.2" viewBox="0 0 1000 1000" preserveAspectRatio="xMidYMid" fill-rule="evenodd" stroke-width="10"
     stroke-linejoin="round" xmlns="http://www.w3.org/2000/svg">
	<g>
		<path fill="none" stroke="rgb(0,0,0)" d="M 666,100 L 901,334 818,368 632,183 666,100 Z"/>
		<path fill="none" stroke="rgb(0,0,0)" d="M 334,901 L 100,666 183,632 368,818 334,901 Z"/>
		<path fill="none" stroke="rgb(0,0,0)" d="M 100,100 L 100,100 Z"/>
		<path fill="none" stroke="rgb(0,0,0)" d="M 901,901 L 901,901 Z"/>
		<path fill="none" stroke="rgb(0,0,0)" d="M 901,334 L 901,666 818,632 818,368 901,334 Z"/>
		<path fill="none" stroke="rgb(0,0,0)" d="M 666,901 L 334,901 368,818 632,818 666,901 Z"/>
		<path fill="none" stroke="rgb(0,0,0)" d="M 100,100 L 100,100 Z"/>
		<path fill="none" stroke="rgb(0,0,0)" d="M 901,901 L 901,901 Z"/>
		<path fill="none" stroke="rgb(0,0,0)" d="M 901,666 L 666,901 632,818 818,632 901,666 Z"/>
		<path fill="none" stroke="rgb(0,0,0)" d="M 100,100 L 100,100 Z"/>
		<path fill="none" stroke="rgb(0,0,0)" d="M 901,901 L 901,901 Z"/>
		<path fill="none" stroke="rgb(0,0,0)" d="M 100,666 L 100,334 183,368 183,632 100,666 Z"/>
		<path fill="none" stroke="rgb(0,0,0)" d="M 334,100 L 666,100 632,183 368,183 334,100 Z"/>
		<path fill="none" stroke="rgb(0,0,0)" d="M 100,100 L 100,100 Z"/>
		<path fill="none" stroke="rgb(0,0,0)" d="M 901,901 L 901,901 Z"/>
		<path fill="none" stroke="rgb(0,0,0)" d="M 100,334 L 334,100 368,183 183,368 100,334 Z"/>
		<path fill="none" stroke="rgb(0,0,0)" d="M 100,100 L 100,100 Z"/>
		<path fill="none" stroke="rgb(0,0,0)" d="M 901,901 L 901,901 Z"/>
	</g>
</svg>