<?xml version="1.0" encoding="UTF-8"?><!DOCTYPE svg PUBLIC "-//W3C//DTD SVG 1.1//EN"
		"http://www.w3.org/Graphics/SVG/1.1/DTD/svg11.dtd">
<svg version="1.2" viewBox="0 0 1000 1000" preserveAspectRatio="xMidYMid" fill-rule="evenodd" stroke-width="10"
     stroke-linejoin="round" xmlns="http://www.w3.org/2000/svg">
  <g>
    <path fill="none" stroke="rgb(0,0,0)"
          d="M 171,299 C 156,224 226,154 295,154 317,154 339,161 358,172 376,138 409,118 446,118 470,119 497,129 515,147 529,117 557,100 587,100 613,100 636,112 651,132 668,112 694,100 720,100 764,100 800,131 808,175 850,187 880,227 880,273 880,286 878,300 872,313 890,335 901,362 901,391 901,454 853,508 791,517 791,578 744,626 684,626 664,626 645,620 628,609 612,663 563,701 507,701 466,701 427,678 404,642 382,656 394,664 331,664 279,664 232,636 207,590 148,589 117,553 117,507 117,486 125,467 139,451 114,438 100,411 100,381 100,339 131,303 171,299 Z"/>
    <path fill="none" stroke="rgb(0,0,0)" d="M 100,100 L 100,100 Z"/>
    <path fill="none" stroke="rgb(0,0,0)" d="M 901,701 L 901,701 Z"/>
    <path fill="none" stroke="rgb(0,0,0)" d="M 171,299 C 172,306 175,313 177,320"/>
    <path fill="none" stroke="rgb(0,0,0)" d="M 100,100 L 100,100 Z"/>
    <path fill="none" stroke="rgb(0,0,0)" d="M 901,701 L 901,701 Z"/>
    <path fill="none" stroke="rgb(0,0,0)" d="M 358,172 C 367,177 377,184 384,192"/>
    <path fill="none" stroke="rgb(0,0,0)" d="M 100,100 L 100,100 Z"/>
    <path fill="none" stroke="rgb(0,0,0)" d="M 901,701 L 901,701 Z"/>
    <path fill="none" stroke="rgb(0,0,0)" d="M 515,147 C 512,153 510,160 509,166"/>
    <path fill="none" stroke="rgb(0,0,0)" d="M 100,100 L 100,100 Z"/>
    <path fill="none" stroke="rgb(0,0,0)" d="M 901,701 L 901,701 Z"/>
    <path fill="none" stroke="rgb(0,0,0)" d="M 651,132 C 645,138 642,147 639,155"/>
    <path fill="none" stroke="rgb(0,0,0)" d="M 100,100 L 100,100 Z"/>
    <path fill="none" stroke="rgb(0,0,0)" d="M 901,701 L 901,701 Z"/>
    <path fill="none" stroke="rgb(0,0,0)" d="M 808,175 C 809,180 813,191 811,194"/>
    <path fill="none" stroke="rgb(0,0,0)" d="M 100,100 L 100,100 Z"/>
    <path fill="none" stroke="rgb(0,0,0)" d="M 901,701 L 901,701 Z"/>
    <path fill="none" stroke="rgb(0,0,0)" d="M 872,313 C 866,327 857,339 845,350"/>
    <path fill="none" stroke="rgb(0,0,0)" d="M 100,100 L 100,100 Z"/>
    <path fill="none" stroke="rgb(0,0,0)" d="M 901,701 L 901,701 Z"/>
    <path fill="none" stroke="rgb(0,0,0)" d="M 791,517 C 794,495 777,439 730,418"/>
    <path fill="none" stroke="rgb(0,0,0)" d="M 100,100 L 100,100 Z"/>
    <path fill="none" stroke="rgb(0,0,0)" d="M 901,701 L 901,701 Z"/>
    <path fill="none" stroke="rgb(0,0,0)" d="M 628,609 C 631,600 632,591 632,583"/>
    <path fill="none" stroke="rgb(0,0,0)" d="M 100,100 L 100,100 Z"/>
    <path fill="none" stroke="rgb(0,0,0)" d="M 901,701 L 901,701 Z"/>
    <path fill="none" stroke="rgb(0,0,0)" d="M 404,642 C 398,635 395,627 391,618"/>
    <path fill="none" stroke="rgb(0,0,0)" d="M 100,100 L 100,100 Z"/>
    <path fill="none" stroke="rgb(0,0,0)" d="M 901,701 L 901,701 Z"/>
    <path fill="none" stroke="rgb(0,0,0)" d="M 207,590 C 214,589 221,588 228,585"/>
    <path fill="none" stroke="rgb(0,0,0)" d="M 100,100 L 100,100 Z"/>
    <path fill="none" stroke="rgb(0,0,0)" d="M 901,701 L 901,701 Z"/>
    <path fill="none" stroke="rgb(0,0,0)" d="M 139,451 C 151,458 166,465 186,462"/>
    <path fill="none" stroke="rgb(0,0,0)" d="M 100,100 L 100,100 Z"/>
    <path fill="none" stroke="rgb(0,0,0)" d="M 901,701 L 901,701 Z"/>
    <path fill="none" stroke="rgb(0,0,0)"
          d="M 351,672 C 388,672 417,693 417,721 417,749 388,771 351,771 314,771 285,749 285,721 285,693 314,672 351,672 Z"/>
    <path fill="none" stroke="rgb(0,0,0)" d="M 100,100 L 100,100 Z"/>
    <path fill="none" stroke="rgb(0,0,0)" d="M 901,701 L 901,701 Z"/>
    <path fill="none" stroke="rgb(0,0,0)"
          d="M 312,775 C 337,775 356,789 356,807 356,825 337,840 312,840 287,840 268,825 268,807 268,789 287,775 312,775 Z"/>
    <path fill="none" stroke="rgb(0,0,0)" d="M 100,100 L 100,100 Z"/>
    <path fill="none" stroke="rgb(0,0,0)" d="M 901,701 L 901,701 Z"/>
    <path fill="none" stroke="rgb(0,0,0)"
          d="M 284,852 C 298,852 309,860 309,870 309,880 298,889 284,889 270,889 259,880 259,870 259,860 270,852 284,852 Z"/>
    <path fill="none" stroke="rgb(0,0,0)" d="M 100,100 L 100,100 Z"/>
    <path fill="none" stroke="rgb(0,0,0)" d="M 901,701 L 901,701 Z"/>
  </g>
</svg>