<?xml version="1.0" encoding="UTF-8"?><!DOCTYPE svg PUBLIC "-//W3C//DTD SVG 1.1//EN"
		"http://www.w3.org/Graphics/SVG/1.1/DTD/svg11.dtd">
<svg version="1.2" viewBox="0 0 1000 1000" preserveAspectRatio="xMidYMid" fill-rule="evenodd" stroke-width="10"
     stroke-linejoin="round" xmlns="http://www.w3.org/2000/svg">
	<g>
		<path fill="none" stroke="rgb(0,0,0)"
		      d="M 286,654 L 270,645 254,636 238,627 224,617 210,606 196,595 184,584 172,571 161,559 151,546 141,533 133,519 126,505 119,491 113,477 109,462 105,448 102,433 101,418 100,403 100,388 102,373 104,358 107,344 111,329 117,314 123,300 130,286 138,273 147,259 157,246 167,234 179,221 191,210 204,198 218,187 232,177 247,167 263,158 280,150 296,142 314,134 332,128 350,122 369,117 388,112 407,108 426,105 446,103 466,101 486,100 506,100 526,101 546,102 565,104 585,107 604,110 623,115 642,120 661,125 679,132 696,139 714,146 730,155 746,164 762,173 776,183 790,194 804,205 816,216 828,228 839,241 849,254 859,267 867,281 874,294 881,309 887,323 891,337 895,352 898,367 899,382 900,397 900,412 898,427 896,442 893,456 889,471 883,485 877,500 870,514 862,527 853,541 844,554 833,566 821,579 809,590 796,602 782,613 768,623 753,633 737,642 721,650 704,658 686,665 668,672 650,678 631,683 612,688 593,692 574,695 554,697 534,699 514,700 494,700 474,699 455,698 435,696 415,693 253,855 286,654 Z"/>
		<path fill="none" stroke="rgb(0,0,0)" d="M 100,100 L 100,100 Z"/>
		<path fill="none" stroke="rgb(0,0,0)" d="M 901,701 L 901,701 Z"/>
	</g>
</svg>